<svg id="Ebene_1" data-name="Ebene 1" xmlns="http://www.w3.org/2000/svg" viewBox="0 0 440.7097 68.6633"><defs><style>.cls-1{fill:#fff;}</style></defs><title>CodeGoLogoWhite</title><path class="cls-1" d="M351.0763,67.0147v-1.82A34.081,34.081,0,0,1,335.3583,69,33.2777,33.2777,0,0,1,304.171,48.36a34.198,34.198,0,0,1-2.5646-13.2773,33.623,33.623,0,0,1,2.606-13.1534A34.3466,34.3466,0,0,1,311.41,11.0507a33.5566,33.5566,0,0,1,38.4671-6.7833,35.571,35.571,0,0,1,11.8713,9.2238l-14.0633,9.348a18.58,18.58,0,0,0-5.6668-3.9293,16.1465,16.1465,0,0,0-6.5766-1.3649,15.756,15.756,0,0,0-6.742,1.4474,17.3964,17.3964,0,0,0-8.9343,9.4308,17.8636,17.8636,0,0,0-1.2825,6.742,18.1763,18.1763,0,0,0,1.2825,6.7837,17.0753,17.0753,0,0,0,3.5984,5.6251,18.0513,18.0513,0,0,0,5.4184,3.8468,15.7287,15.7287,0,0,0,6.7423,1.4481A16.7716,16.7716,0,0,0,348.8428,46.25H337.5094V30.78h28.2094V67.0142Z" transform="translate(-1.4295 -0.9998)"/><path class="cls-1" d="M407.9739,69a33.58,33.58,0,0,1-13.319-2.6471,33.8543,33.8543,0,0,1-10.8375-55.3021,35.015,35.015,0,0,1,10.8375-7.28,34.2332,34.2332,0,0,1,26.5963,0,34.8957,34.8957,0,0,1,10.878,7.28,33.8437,33.8437,0,0,1-10.878,55.3021A33.6837,33.6837,0,0,1,407.9739,69Zm0-51.5377a15.7552,15.7552,0,0,0-6.7431,1.4477,17.0647,17.0647,0,0,0-5.3353,3.8465,18.253,18.253,0,0,0,0,24.6523,17.0376,17.0376,0,0,0,5.3353,3.8471,16.428,16.428,0,0,0,13.4847,0,17.0487,17.0487,0,0,0,5.336-3.8471,18.197,18.197,0,0,0,0-24.6523,17.0759,17.0759,0,0,0-5.336-3.8465A15.7548,15.7548,0,0,0,407.9739,17.4623Z" transform="translate(-1.4295 -0.9998)"/><path class="cls-1" d="M149.9085,67.5471V3.8781c3.1458,0,6.1648-.0819,9.178.0164,7.1785.2341,14.5024-.2708,21.5043.9875,24.3678,4.3787,29.7465,26.1823,24.1019,42.1652-4.1085,11.6337-13.18,17.9457-24.9559,19.4067C169.9646,67.6663,159.9892,67.241,149.9085,67.5471Zm16.72-49.2848V52.913c8.1916.6031,15.7631-.1759,20.37-7.8467a17.8521,17.8521,0,0,0-.2136-19.7473c-4.724-7.439-12.3609-7.4846-20.1561-7.0567Z" transform="translate(-1.4295 -0.9998)"/><path class="cls-1" d="M260.5679,42.2846H231.0073V53.0111h30.3686V67.0938H214.3091V4.0516h47.0621v14.02H230.9706v9.8612h29.5973Z" transform="translate(-1.4295 -0.9998)"/><path class="cls-1" d="M57.5788,11.0336,46.6838,22.7272c-3.9181-3.7382-8.3757-5.59-13.6339-4.8664a15.6053,15.6053,0,0,0-10.0013,5.65A18.9769,18.9769,0,0,0,23.64,48.3358c6.187,6.5916,14.3183,6.7222,23.08.2747L57.4751,60.1682c-8.5689,10.0131-29.224,14.5709-44.4783,1.176a34.4662,34.4662,0,0,1-2.86-48.6586h0q.726-.8166,1.5028-1.5861C25.9688-2.9716,47.1978-.2785,57.5788,11.0336Z" transform="translate(-1.4295 -0.9998)"/><path class="cls-1" d="M142.776,35.46,109.6391,67.8113,98.6991,56.095l21.8622-20.5428L98.6076,14.7443,109.4543,2.9714Z" transform="translate(-1.4295 -0.9998)"/><path class="cls-1" d="M93.9723,14.948,72.1356,35.6193l22.08,20.7245L83.2813,68.1,49.9151,35.5354,83.1569,3.1164Z" transform="translate(-1.4295 -0.9998)"/><path class="cls-1" d="M282.6927,24.9159a8.568,8.568,0,0,1-3.5085-.7147,10.3711,10.3711,0,0,1-2.8911-1.9062,8.39,8.39,0,0,1-1.9909-2.8113,8.6743,8.6743,0,0,1-.71-3.526,8.7868,8.7868,0,0,1,.71-3.4782,8.3085,8.3085,0,0,1,1.9909-2.859,10.4082,10.4082,0,0,1,2.8911-1.9059A8.563,8.563,0,0,1,282.6927,7a8.6528,8.6528,0,0,1,3.4589.7146,9.573,9.573,0,0,1,2.8919,1.9059,8.6294,8.6294,0,0,1,1.9427,2.859,8.8792,8.8792,0,0,1-1.9426,9.8155,9.5362,9.5362,0,0,1-2.8919,1.9062A8.6589,8.6589,0,0,1,282.6927,24.9159Zm0,40.6915a9.2041,9.2041,0,0,1-8.39-5.3845,8.3386,8.3386,0,0,1-.71-3.4782,8.6827,8.6827,0,0,1,.71-3.5256,8.9523,8.9523,0,0,1,1.9909-2.8593,9.2644,9.2644,0,0,1,9.8585-1.9055,8.5358,8.5358,0,0,1,2.8918,1.9055,9.3278,9.3278,0,0,1,1.9428,2.8593,8.6835,8.6835,0,0,1,.7119,3.5256,8.3423,8.3423,0,0,1-.7119,3.4782,9.4663,9.4663,0,0,1-1.9428,2.8113,8.5258,8.5258,0,0,1-2.8918,1.9063A9.2081,9.2081,0,0,1,282.6927,65.6074Z" transform="translate(-1.4295 -0.9998)"/></svg>